<?xml version="1.0" standalone="no"?>
<!DOCTYPE svg PUBLIC "-//W3C//DTD SVG 20010904//EN"
 "http://www.w3.org/TR/2001/REC-SVG-20010904/DTD/svg10.dtd">
<svg version="1.0" xmlns="http://www.w3.org/2000/svg"
 width="480.000000pt" height="593.000000pt" viewBox="0 0 480.000000 593.000000"
 preserveAspectRatio="xMidYMid meet">

<g transform="translate(0.000000,593.000000) scale(0.100000,-0.100000)"
fill="#000000" stroke="none">
<path d="M0 5642 l0 -289 23 -10 c12 -6 51 -23 87 -38 36 -15 79 -33 95 -40
17 -7 50 -20 75 -30 25 -9 59 -23 75 -30 124 -57 310 -135 322 -135 8 0 27 -7
41 -14 15 -8 89 -45 165 -81 124 -61 137 -69 137 -94 0 -14 7 -34 14 -44 7 -9
11 -29 8 -43 -3 -15 -1 -24 4 -21 5 3 10 -6 10 -19 1 -13 -2 -21 -8 -18 -5 3
-4 -3 3 -13 15 -25 4 -73 -17 -73 -8 0 -24 19 -35 43 -11 23 -17 34 -14 24 3
-10 5 -23 5 -28 0 -18 66 -79 90 -82 24 -4 25 -7 23 -63 -10 -290 -8 -322 25
-404 3 -8 7 -22 8 -30 1 -8 9 -46 18 -85 9 -38 19 -81 21 -95 2 -14 9 -47 14
-75 15 -78 14 -83 -13 -78 -30 6 -66 -13 -66 -34 0 -16 1 -15 13 0 11 16 14
16 42 -3 l30 -20 1 -132 c2 -220 6 -301 13 -289 4 6 7 -3 7 -21 0 -96 53 -399
72 -406 6 -2 12 3 12 12 0 9 5 16 10 16 6 0 10 16 10 35 0 19 -4 35 -10 35 -5
0 -10 11 -10 25 0 14 -4 25 -9 25 -5 0 -7 10 -3 22 3 14 2 19 -6 14 -7 -4 -12
0 -13 11 0 10 -2 28 -3 41 -2 13 1 25 5 28 4 2 5 20 2 39 -4 26 -2 35 8 35 12
0 12 2 0 9 -8 5 -10 14 -5 22 4 7 9 62 10 122 3 99 5 110 26 127 13 11 18 19
12 20 -18 0 -8 59 14 80 16 15 22 16 31 7 12 -15 4 -55 -14 -77 -10 -11 -10
-18 -2 -25 16 -15 99 -13 104 2 3 8 11 7 31 -3 15 -8 35 -14 44 -14 9 0 19 -4
22 -8 7 -11 142 -4 286 15 l44 5 -29 -25 c-42 -36 -13 -35 58 3 l55 29 6 -25
c6 -22 11 -25 36 -19 28 6 42 -6 21 -19 -7 -5 -12 -20 -22 -74 -1 -4 -8 -16
-15 -27 -8 -11 -14 -29 -14 -41 0 -12 -6 -27 -14 -33 -7 -6 -16 -24 -19 -39
-3 -15 -9 -35 -12 -44 -6 -14 0 -16 38 -14 57 4 64 9 72 49 4 17 25 68 46 112
22 43 37 85 35 92 -3 7 -2 15 3 17 4 3 5 28 1 56 -5 41 -3 54 9 63 9 7 24 23
33 37 13 22 14 29 2 44 -7 11 -12 22 -9 25 2 4 -6 18 -17 31 -11 14 -16 18
-12 10 5 -10 0 -8 -15 4 -12 11 -20 25 -17 32 3 7 -4 24 -15 38 -11 14 -18 26
-15 26 3 0 -9 16 -27 35 -17 19 -39 35 -48 35 -9 0 -29 18 -45 41 -41 60 -70
79 -119 79 -23 0 -74 11 -115 25 -40 14 -109 29 -153 35 -44 5 -86 15 -93 21
-10 8 -24 6 -55 -10 -35 -18 -40 -19 -35 -6 3 9 6 23 6 31 0 15 73 88 90 90 6
1 17 2 25 3 8 0 15 10 15 20 0 11 6 22 13 24 9 4 9 6 0 6 -7 1 -10 8 -7 16 4
8 1 22 -6 30 -10 12 -8 16 13 24 30 11 46 33 29 39 -18 6 -4 22 19 22 10 0 19
6 19 14 0 8 6 16 13 19 6 2 8 8 4 13 -4 5 -11 4 -15 -2 -4 -6 -18 -13 -30 -17
-20 -5 -23 -2 -19 13 3 13 0 17 -9 13 -8 -3 -14 0 -14 6 0 6 7 11 16 11 11 0
14 6 9 20 -8 26 4 82 16 74 5 -3 9 5 9 17 0 18 -3 20 -12 11 -9 -9 -14 -7 -24
6 -16 20 -18 36 -4 27 14 -8 13 8 -1 22 -9 9 -7 10 10 6 15 -4 21 -1 21 11 0
9 5 16 11 16 5 0 8 4 5 9 -4 5 14 19 39 31 26 13 45 29 45 38 0 11 3 13 8 6
13 -19 40 -23 59 -9 21 17 53 19 53 5 0 -7 6 -7 19 0 27 14 31 13 25 -7 -4
-13 0 -12 15 5 19 22 25 23 66 14 25 -5 45 -6 45 -1 0 5 -6 9 -14 9 -24 0 -29
20 -10 41 20 22 39 24 59 7 11 -11 10 -17 -8 -35 -16 -19 -17 -23 -5 -23 9 0
21 7 28 15 7 8 19 15 26 15 8 0 14 4 14 8 0 15 59 6 78 -11 10 -10 35 -17 55
-17 20 0 38 -4 41 -9 3 -4 30 -7 60 -5 48 3 54 1 49 -14 -6 -15 -4 -15 10 -4
9 8 21 11 27 7 6 -4 39 -8 73 -10 86 -5 91 -7 134 -46 36 -32 41 -34 91 -29
30 3 56 2 59 -3 3 -5 14 -7 24 -4 11 3 19 0 19 -6 0 -8 3 -8 11 0 12 12 49 6
49 -8 0 -5 -7 -6 -15 -3 -9 4 -15 0 -15 -10 0 -10 6 -13 15 -10 11 4 13 2 10
-9 -4 -9 1 -16 14 -20 16 -4 21 0 21 15 0 13 5 18 13 15 9 -3 13 3 13 16 -1
14 8 23 27 28 23 6 28 5 23 -7 -3 -9 -6 -17 -6 -20 0 -2 -7 -1 -15 2 -10 4
-15 0 -15 -15 0 -13 6 -21 16 -21 12 0 15 -7 12 -24 -3 -15 2 -27 14 -35 22
-14 31 -14 23 0 -9 13 24 38 51 39 14 0 24 -8 28 -22 5 -19 8 -21 16 -8 9 13
11 13 20 0 5 -8 10 -11 10 -6 0 5 7 3 15 -4 21 -17 31 -5 14 17 -12 17 -12 17
5 1 17 -15 17 -18 2 -39 -18 -26 -22 -79 -6 -79 6 0 10 13 10 29 0 35 22 58
38 39 17 -22 19 -74 2 -63 -5 3 -10 -1 -10 -9 0 -9 4 -16 9 -16 6 0 8 -8 7
-17 -2 -10 -7 -37 -11 -60 -7 -42 -17 -53 -30 -33 -3 6 -1 10 4 10 6 0 11 14
11 30 0 23 -5 30 -19 30 -14 0 -21 8 -23 26 -2 20 -12 29 -43 40 -49 17 -65
17 -65 3 0 -6 9 -9 20 -6 12 3 20 0 20 -7 0 -6 10 -16 22 -21 30 -13 39 -50
10 -41 -11 4 -23 2 -27 -4 -3 -6 -11 -7 -17 -4 -7 4 -6 9 2 14 8 5 7 11 -4 21
-36 33 -45 38 -48 29 -2 -7 -15 -7 -36 -1 -25 8 -32 7 -32 -5 0 -8 -4 -14 -10
-14 -5 0 -10 13 -10 29 0 17 -6 31 -15 35 -13 4 -13 2 -5 -14 7 -14 6 -22 -5
-34 -16 -16 -19 -27 -7 -25 4 1 22 -2 41 -6 31 -7 32 -9 17 -21 -10 -7 -24
-10 -31 -8 -18 7 -30 -16 -14 -27 12 -8 12 -11 -1 -20 -12 -8 -10 -9 9 -4 15
5 21 3 17 -3 -9 -15 27 -32 69 -34 24 -1 41 -8 51 -22 13 -18 16 -19 25 -6 8
11 12 12 16 2 2 -6 8 -10 13 -7 12 7 29 -50 23 -74 -7 -26 -23 -26 -75 -1 -35
17 -47 18 -87 8 -25 -6 -57 -16 -71 -23 -14 -7 -41 -15 -61 -19 -20 -3 -54
-15 -77 -26 -23 -11 -48 -20 -56 -20 -8 0 -17 -4 -21 -10 -3 -5 -12 -7 -20 -3
-8 3 -15 0 -15 -7 0 -6 -4 -8 -10 -5 -5 3 -10 0 -10 -7 0 -10 -3 -9 -11 2 -8
12 -12 12 -16 2 -4 -10 -8 -10 -19 -1 -11 9 -16 6 -24 -16 -5 -14 -10 -35 -10
-45 0 -22 -14 -33 -48 -36 -13 -2 -32 -10 -42 -19 -12 -11 -27 -14 -46 -10
-19 4 -24 3 -16 -2 14 -10 6 -43 -10 -43 -21 0 -59 -51 -53 -71 4 -12 -2 -34
-14 -55 -12 -19 -21 -46 -21 -59 0 -13 -4 -27 -10 -30 -17 -11 -11 -33 12 -41
27 -8 57 -43 58 -67 0 -10 10 -40 21 -67 12 -27 19 -57 15 -65 -3 -9 0 -18 8
-21 20 -7 50 -93 51 -144 0 -8 8 -15 18 -15 10 0 23 -8 28 -17 8 -14 14 -15
33 -7 37 17 80 -8 84 -48 3 -27 -1 -33 -20 -38 -52 -11 -113 -10 -124 4 -15
19 -57 -5 -116 -68 -44 -46 -50 -49 -88 -46 -39 4 -110 47 -110 66 0 15 -118
10 -156 -6 -29 -12 -33 -17 -25 -32 19 -32 35 -48 66 -63 17 -8 32 -18 35 -22
3 -3 13 0 23 7 15 11 16 17 7 34 -6 12 -17 21 -25 21 -8 0 -15 7 -15 16 0 24
109 10 128 -17 7 -11 31 -28 52 -39 34 -17 46 -19 90 -9 28 6 56 16 63 23 18
19 54 36 60 30 9 -9 -12 -68 -28 -77 -8 -4 -15 -17 -15 -27 0 -10 -5 -22 -10
-25 -6 -4 -7 -11 -4 -17 4 -6 10 -5 15 3 6 10 9 3 9 -20 0 -30 -2 -32 -17 -21
-10 8 -3 -1 15 -19 17 -18 32 -35 32 -39 0 -14 55 -28 83 -21 37 10 62 5 62
-12 0 -10 -16 -14 -60 -15 -95 -2 -152 -12 -192 -35 -36 -21 -38 -21 -89 -3
-51 17 -55 17 -156 -4 -57 -12 -132 -23 -167 -26 -35 -2 -68 -9 -73 -14 -6 -6
-17 -8 -25 -5 -11 5 -11 9 4 26 15 17 16 20 2 14 -11 -3 -21 3 -29 19 -17 31
-21 30 -53 -6 -15 -17 -33 -30 -41 -30 -11 0 -14 -17 -13 -77 l2 -78 -35 -3
c-35 -3 -47 -15 -65 -64 -8 -20 -68 -32 -94 -19 -10 6 -31 31 -45 55 -14 25
-31 48 -36 51 -6 3 -7 -41 -3 -118 l6 -125 -69 -22 c-184 -60 -540 -224 -576
-265 -12 -14 -26 -25 -31 -25 -5 0 -27 -15 -48 -32 -21 -18 -54 -46 -74 -61
l-35 -29 -72 27 c-93 34 -434 154 -470 165 l-28 9 0 -183 0 -183 130 -202
c151 -234 165 -259 162 -286 -6 -48 -25 -115 -33 -115 -7 0 -69 94 -124 188
-6 9 -39 60 -73 112 l-62 95 0 -737 0 -738 2390 0 2390 0 0 1258 0 1258 -37
25 c-21 13 -53 31 -70 38 -18 7 -33 17 -33 22 0 5 -3 8 -7 7 -5 -2 -37 12 -73
30 -106 53 -362 188 -400 210 -19 11 -78 43 -130 70 -52 28 -120 63 -150 80
-30 16 -89 47 -130 68 -41 22 -77 41 -80 44 -4 4 -39 24 -95 54 -11 6 -22 13
-25 16 -3 3 -39 23 -80 44 -135 70 -142 76 -137 105 23 118 37 213 37 253 0
49 18 147 30 161 4 4 50 -12 102 -38 53 -25 98 -45 101 -45 7 0 180 -82 502
-239 132 -64 260 -126 285 -138 25 -12 65 -33 90 -46 68 -37 252 -124 278
-131 l22 -7 0 718 0 718 -37 40 c-21 22 -73 81 -116 130 -43 50 -95 107 -115
128 -27 29 -33 40 -23 46 9 6 10 11 2 15 -6 4 -11 4 -11 1 0 -3 -6 0 -14 7 -8
7 -11 17 -8 22 3 5 0 6 -6 2 -6 -4 -17 2 -24 14 -7 11 -17 20 -23 20 -5 0 -31
26 -56 58 -64 78 -72 87 -313 336 -195 202 -354 361 -483 485 -28 27 -57 59
-63 70 l-11 21 -1739 0 -1740 0 0 -288z m1097 -976 c-4 -9 1 -16 11 -19 16 -4
15 -5 -1 -12 -10 -4 -20 -5 -23 -2 -7 6 5 47 13 47 3 0 3 -6 0 -14z m1903 -93
c0 -16 -6 -16 -31 -3 -16 9 -17 15 -8 31 10 20 11 20 24 2 8 -10 15 -24 15
-30z m53 6 c-3 -10 0 -19 6 -19 6 0 11 -5 11 -10 0 -7 -6 -6 -17 1 -20 12 -25
59 -7 52 7 -2 10 -13 7 -24z m-28 -579 c3 -5 17 -10 29 -10 16 0 26 -7 30 -22
4 -18 8 -20 17 -11 10 10 15 8 25 -5 15 -20 18 -52 5 -52 -5 0 -11 -10 -15
-22 -5 -19 -8 -20 -15 -9 -8 12 -12 12 -25 2 -11 -9 -20 -10 -28 -3 -11 8
-134 8 -258 0 -36 -3 -90 10 -90 21 0 5 24 23 53 39 100 58 256 99 272 72z
m-1382 -86 c33 -15 68 -35 77 -44 3 -3 18 -11 34 -18 25 -11 27 -15 15 -27
-13 -12 -59 -18 -244 -30 -38 -3 -71 -8 -73 -13 -4 -12 -62 -6 -75 7 -9 9 -8
14 2 20 8 6 9 11 3 15 -6 3 -13 2 -17 -4 -6 -9 -45 -15 -45 -6 0 2 -3 11 -6
20 -4 10 -1 16 8 16 8 0 21 11 28 25 16 29 73 58 99 50 11 -3 22 -1 26 6 9 14
124 3 168 -17z m77 -144 c0 -5 -4 -10 -9 -10 -6 0 -13 5 -16 10 -3 6 1 10 9
10 9 0 16 -4 16 -10z m921 -72 c8 -15 5 -18 -18 -18 -16 1 -39 7 -51 14 l-24
13 33 27 33 28 9 -23 c5 -13 13 -32 18 -41z m236 46 c9 -23 -9 -47 -41 -55
-22 -6 -27 -5 -22 8 3 8 9 26 12 39 7 28 41 33 51 8z m-1237 -62 c0 -10 7 -27
15 -39 20 -28 8 -35 -33 -18 -33 15 -42 41 -20 63 18 18 38 15 38 -6z m244 2
c10 -25 7 -30 -20 -43 -34 -15 -37 -11 -23 27 12 34 33 42 43 16z m1223 -66
c-3 -8 -6 -5 -6 6 -1 11 2 17 5 13 3 -3 4 -12 1 -19z m-1344 -55 c-4 -10 -2
-14 5 -9 18 11 22 -9 6 -33 -14 -20 -22 -22 -77 -16 -58 5 -117 22 -117 32 0
8 25 30 40 35 8 3 45 5 82 6 59 1 66 -1 61 -15z m1351 -8 c-6 -25 4 -33 22
-15 14 14 36 -4 37 -33 1 -14 5 -23 8 -21 4 2 10 -16 13 -41 4 -24 11 -47 16
-50 5 -3 2 -21 -6 -40 -12 -29 -12 -35 -1 -35 9 0 14 -12 14 -31 0 -17 4 -34
10 -37 5 -4 10 -48 11 -99 1 -51 2 -96 3 -100 3 -17 -1 -33 -9 -33 -4 0 -8 10
-7 23 0 12 -4 23 -10 24 -6 2 -10 -29 -10 -77 0 -44 3 -80 8 -80 4 0 7 -7 7
-15 0 -8 -7 -15 -15 -15 -12 0 -13 -9 -8 -45 4 -32 2 -45 -6 -45 -9 0 -11 -9
-6 -29 6 -28 -13 -61 -36 -61 -6 0 -9 -8 -7 -17 2 -11 -2 -17 -11 -15 -8 2
-28 4 -45 5 -17 1 -33 5 -36 9 -3 4 -16 9 -28 11 -12 2 -35 15 -50 30 -15 15
-36 27 -46 27 -10 0 -30 12 -43 27 -18 19 -27 23 -33 13 -5 -8 -10 -9 -14 -1
-4 7 -29 9 -64 7 -65 -5 -76 -1 -86 32 -7 19 -12 22 -40 16 -25 -4 -35 -2 -39
10 -4 9 -13 16 -20 16 -21 0 -35 41 -26 75 5 16 11 43 13 59 3 15 18 42 35 58
46 45 45 83 -5 148 -19 24 -40 64 -46 87 -6 24 -14 43 -19 43 -5 0 -9 11 -9
25 0 14 5 25 10 25 6 0 10 11 10 25 0 16 6 25 15 25 9 0 18 6 21 13 3 8 27 13
70 14 51 1 68 5 79 20 7 10 9 20 4 21 -44 16 116 23 178 7 12 -3 25 0 28 5 4
6 14 8 24 5 9 -3 36 4 59 15 22 11 48 20 57 20 9 0 13 5 10 10 -3 6 1 10 10
10 11 0 14 -6 9 -25z m-574 -655 c0 -5 -2 -10 -4 -10 -3 0 -8 5 -11 10 -3 6
-1 10 4 10 6 0 11 -4 11 -10z m175 -190 c3 -5 1 -10 -4 -10 -6 0 -11 5 -11 10
0 6 2 10 4 10 3 0 8 -4 11 -10z m270 -30 c-3 -5 -12 -10 -18 -10 -7 0 -6 4 3
10 19 12 23 12 15 0z m71 -47 c-10 -10 -19 5 -10 18 6 11 8 11 12 0 2 -7 1
-15 -2 -18z m59 18 c3 -5 1 -12 -5 -16 -5 -3 -10 1 -10 9 0 18 6 21 15 7z
m-680 -11 c10 -15 -14 -50 -34 -50 -18 0 -35 -31 -32 -57 1 -8 -9 -13 -24 -13
-14 0 -25 5 -25 10 0 6 6 9 12 8 7 -2 14 7 16 20 4 23 -13 31 -21 10 -3 -7 -6
-4 -6 7 -2 41 95 96 114 65z m715 0 c0 -5 -2 -10 -4 -10 -3 0 -8 5 -11 10 -3
6 -1 10 4 10 6 0 11 -4 11 -10z m-973 -31 c6 -6 19 -12 29 -13 11 -2 18 -10
16 -18 -1 -9 7 -18 18 -21 11 -3 20 -12 20 -20 0 -18 -27 -30 -35 -17 -11 18
-43 10 -58 -14 -20 -30 -73 -40 -139 -28 -37 7 -50 6 -59 -4 -16 -20 -32 -6
-26 23 3 19 -1 27 -21 34 l-25 10 21 15 c16 11 27 12 41 4 11 -5 42 -10 70
-10 30 0 51 -5 54 -12 7 -22 36 10 30 32 -10 38 37 66 64 39z m381 -61 c-3
-32 -5 -33 -62 -40 -66 -8 -97 2 -89 30 5 19 60 38 121 41 32 1 33 0 30 -31z
m-627 -98 c27 -15 24 -28 -6 -22 -14 2 -25 11 -25 18 0 17 5 17 31 4z m79 6
c0 -3 -4 -8 -10 -11 -5 -3 -10 -1 -10 4 0 6 5 11 10 11 6 0 10 -2 10 -4z m47
-65 c-4 -18 2 -20 67 -25 39 -3 91 -5 116 -5 40 2 113 1 183 0 12 0 44 0 70 0
60 0 117 -18 117 -37 0 -8 10 -14 23 -14 32 0 52 -47 36 -86 -7 -16 -11 -44
-10 -61 2 -30 0 -33 -28 -33 -31 0 -56 -18 -66 -48 -7 -23 -95 -88 -95 -71 0
9 -4 9 -15 -1 -18 -15 -94 -4 -102 16 -3 8 -14 14 -24 14 -11 0 -16 -5 -13
-13 6 -18 -206 -12 -221 6 -11 14 -101 47 -127 47 -10 0 -18 5 -18 10 0 6 -7
10 -16 10 -17 0 -39 19 -42 35 -1 6 -10 10 -20 10 -12 0 -16 6 -13 20 3 11 5
32 5 48 1 16 7 27 15 27 8 0 11 6 7 15 -3 9 0 15 9 15 7 0 15 7 17 16 2 10 15
18 31 20 32 3 57 20 57 39 0 7 10 16 23 19 l22 7 -25 10 c-20 8 -22 12 -10 19
27 17 53 12 47 -9z m-517 5 c0 -3 -4 -8 -10 -11 -5 -3 -10 -1 -10 4 0 6 5 11
10 11 6 0 10 -2 10 -4z m278 -175 c3 -8 -1 -12 -9 -9 -7 2 -15 10 -17 17 -3 8
1 12 9 9 7 -2 15 -10 17 -17z m24 -16 c3 -13 1 -22 -3 -19 -9 5 -13 44 -5 44
2 0 6 -11 8 -25z m1042 -362 c-20 -7 -38 -22 -33 -27 3 -3 22 6 42 20 36 24
37 24 37 4 0 -12 -4 -18 -10 -15 -5 3 -10 1 -10 -4 0 -6 -7 -11 -15 -11 -9 0
-15 -9 -15 -22 -1 -26 -24 -61 -37 -56 -4 2 -9 -9 -11 -24 -2 -15 -9 -26 -15
-24 -7 1 -9 1 -4 -1 13 -8 8 -33 -8 -39 -8 -4 -15 -14 -15 -23 0 -10 -16 -31
-36 -47 -20 -16 -46 -39 -57 -51 -11 -13 -29 -23 -40 -23 -10 0 -17 -5 -15
-12 6 -16 -24 -45 -42 -41 -9 2 -23 -9 -33 -26 -9 -16 -26 -33 -37 -36 -11 -4
-20 -12 -20 -18 0 -7 -9 -18 -20 -25 -12 -7 -18 -17 -15 -22 3 -5 -5 -14 -17
-21 -22 -12 -22 -12 -3 -20 20 -8 20 -8 0 -10 -30 -3 -38 -5 -59 -14 -16 -7
-16 -9 -2 -17 9 -5 16 -14 16 -21 0 -8 -4 -7 -9 2 -8 12 -12 13 -25 1 -14 -11
-16 -10 -11 2 5 13 -9 11 -82 -9 -66 -18 -113 -24 -188 -25 -141 0 -220 18
-293 67 -20 14 -42 25 -48 25 -13 0 -48 45 -82 103 -25 44 -30 97 -8 97 8 0
17 6 19 13 3 6 6 2 6 -10 1 -27 18 -31 24 -5 3 11 5 7 6 -10 2 -44 33 -51 36
-9 1 11 7 27 15 36 8 9 13 33 11 53 -1 21 -3 46 -4 57 -1 11 2 33 6 48 5 18 4
26 -2 23 -5 -4 -12 -2 -15 3 -4 5 -2 13 4 16 6 4 8 16 5 28 -4 12 -3 18 2 12
12 -15 43 -18 43 -4 0 6 -8 18 -17 26 -10 8 -12 12 -6 8 9 -4 12 1 10 17 -3
30 22 31 49 1 26 -28 40 -18 19 14 -17 26 -13 28 16 12 12 -6 18 -17 15 -25
-5 -12 1 -14 29 -8 27 5 36 2 41 -10 8 -20 74 -40 88 -26 12 12 29 13 22 1 -7
-10 17 -21 45 -21 10 0 19 -4 19 -10 0 -13 27 -13 32 1 2 5 34 12 71 14 38 3
72 7 78 10 5 4 9 -1 9 -9 0 -9 5 -16 10 -16 6 0 10 7 10 15 0 9 9 15 25 15 18
0 23 -4 18 -16 -5 -12 -1 -15 13 -11 54 15 86 19 80 8 -5 -7 -1 -9 8 -5 25 10
19 -22 -6 -34 -18 -8 -9 -10 44 -7 37 2 74 9 83 16 8 8 22 20 30 27 8 7 19 11
24 7 5 -3 13 4 16 16 4 11 9 18 12 15 4 -3 21 3 39 15 26 16 37 18 54 9 13 -7
20 -7 20 0 0 5 7 10 16 10 8 0 13 4 9 10 -3 5 -11 7 -18 4 -8 -3 -13 4 -13 15
0 26 69 65 75 42 2 -8 -1 -17 -5 -18z m-1254 -37 c0 -8 -4 -18 -10 -21 -5 -3
-10 3 -10 14 0 12 5 21 10 21 6 0 10 -6 10 -14z m7 -63 c-3 -10 -5 -4 -5 12 0
17 2 24 5 18 2 -7 2 -21 0 -30z m933 -7 c0 -3 -4 -8 -10 -11 -5 -3 -10 -1 -10
4 0 6 5 11 10 11 6 0 10 -2 10 -4z m-911 -123 c13 -86 14 -103 3 -103 -20 0
-51 167 -36 191 11 18 21 -8 33 -88z m-224 -43 c3 -5 1 -10 -4 -10 -6 0 -11 5
-11 10 0 6 2 10 4 10 3 0 8 -4 11 -10z m-8 -82 c-3 -8 -6 -5 -6 6 -1 11 2 17
5 13 3 -3 4 -12 1 -19z m1344 -1 c-10 -9 -11 -8 -5 6 3 10 9 15 12 12 3 -3 0
-11 -7 -18z m-54 -41 c0 -8 -6 -12 -15 -9 -11 5 -11 7 0 14 7 5 13 9 14 9 0 0
1 -6 1 -14z m-47 -31 c-7 -8 -17 -15 -22 -15 -6 0 -5 7 2 15 7 8 17 15 22 15
6 0 5 -7 -2 -15z m-150 -99 c0 -2 -7 -7 -16 -10 -8 -3 -12 -2 -9 4 6 10 25 14
25 6z m-201 -142 c-10 -13 -10 -17 2 -26 12 -8 12 -9 -1 -6 -18 5 -39 -13 -33
-28 2 -6 -3 -14 -13 -18 -14 -5 -15 -4 -4 9 7 8 8 15 2 15 -5 0 -17 -10 -26
-22 -9 -13 -14 -16 -9 -8 4 8 25 34 47 57 41 42 60 57 35 27z m-119 -130 c0
-8 -4 -13 -9 -9 -5 3 -12 1 -16 -5 -3 -5 -11 -10 -17 -10 -5 0 0 9 13 20 29
24 29 24 29 4z m-92 -71 c-9 -10 -18 -25 -21 -33 -4 -11 -6 -10 -6 4 -1 10 7
25 17 32 24 19 28 17 10 -3z m-408 -238 c-7 -8 -17 -15 -23 -15 -6 0 -2 7 9
15 25 19 30 19 14 0z m-164 -210 c-28 -62 -45 -93 -46 -82 0 12 58 137 64 137
3 0 -5 -25 -18 -55z m-110 -232 c-8 -15 -15 -25 -16 -21 0 12 23 58 27 54 3
-2 -2 -17 -11 -33z"/>
<path d="M2758 3453 c7 -3 16 -2 19 1 4 3 -2 6 -13 5 -11 0 -14 -3 -6 -6z"/>
<path d="M3130 2746 c0 -9 5 -16 10 -16 6 0 10 4 10 9 0 6 -4 13 -10 16 -5 3
-10 -1 -10 -9z"/>
<path d="M3105 2700 c4 -6 11 -8 16 -5 14 9 11 15 -7 15 -8 0 -12 -5 -9 -10z"/>
<path d="M2718 1713 c7 -3 16 -2 19 1 4 3 -2 6 -13 5 -11 0 -14 -3 -6 -6z"/>
<path d="M2680 1669 c0 -5 5 -7 10 -4 6 3 10 8 10 11 0 2 -4 4 -10 4 -5 0 -10
-5 -10 -11z"/>
<path d="M0 4209 l0 -803 56 95 c69 115 150 252 176 299 30 53 92 154 98 160
3 3 16 28 30 55 13 28 27 52 31 55 3 3 28 43 54 90 26 47 55 96 65 110 9 14
28 45 42 70 60 106 171 296 180 308 7 8 7 12 -1 12 -7 0 -116 51 -244 114
-128 62 -286 139 -352 171 -66 32 -123 60 -127 62 -5 2 -8 -357 -8 -798z"/>
<path d="M1003 4808 c-14 -19 -24 -50 -14 -44 5 3 18 -13 29 -37 l20 -42 -3
33 c-1 18 -5 35 -8 38 -3 3 -3 13 0 22 4 14 3 15 -6 2 -15 -21 -25 -5 -11 19
12 23 8 28 -7 9z"/>
<path d="M1805 4690 c-3 -5 -18 -10 -33 -10 -20 0 -23 -3 -14 -12 10 -10 17
-10 31 -1 10 7 29 9 42 6 25 -6 25 -6 -3 15 -11 9 -18 10 -23 2z"/>
<path d="M1051 4584 c0 -11 3 -14 6 -6 3 7 2 16 -1 19 -3 4 -6 -2 -5 -13z"/>
<path d="M1560 4580 c0 -5 5 -10 10 -10 6 0 10 5 10 10 0 6 -4 10 -10 10 -5 0
-10 -4 -10 -10z"/>
<path d="M2811 4520 c-15 -9 -3 -86 15 -101 22 -19 29 -2 15 37 -14 38 -8 55
11 36 17 -17 48 -15 48 3 0 18 -26 20 -33 3 -4 -8 -6 -7 -6 3 -1 18 -32 30
-50 19z"/>
<path d="M3080 4486 c0 -8 4 -17 9 -20 10 -7 23 19 14 28 -11 11 -23 6 -23 -8z"/>
<path d="M3005 4463 c-11 -3 -25 -9 -31 -14 -6 -5 -19 -7 -28 -3 -10 4 -16 1
-16 -9 0 -26 21 -31 36 -8 8 12 24 21 34 21 10 0 22 5 25 10 3 6 5 9 3 9 -2
-1 -12 -4 -23 -6z"/>
<path d="M1150 3621 c0 -65 14 -73 18 -11 1 27 -2 51 -8 55 -6 4 -10 -12 -10
-44z"/>
<path d="M1336 3561 c-4 -7 -5 -15 -2 -18 9 -9 19 4 14 18 -4 11 -6 11 -12 0z"/>
<path d="M1330 2900 c0 -5 5 -10 11 -10 5 0 7 5 4 10 -3 6 -8 10 -11 10 -2 0
-4 -4 -4 -10z"/>
<path d="M1338 2823 c7 -3 16 -2 19 1 4 3 -2 6 -13 5 -11 0 -14 -3 -6 -6z"/>
<path d="M2240 2809 c0 -5 5 -7 10 -4 6 3 10 8 10 11 0 2 -4 4 -10 4 -5 0 -10
-5 -10 -11z"/>
<path d="M2022 2798 c-27 -7 -30 -11 -19 -22 18 -19 54 -29 61 -17 3 5 3 18
-1 28 -7 17 -13 18 -41 11z"/>
<path d="M1927 2746 c-17 -13 -23 -36 -9 -36 8 0 35 40 30 45 -2 2 -11 -2 -21
-9z"/>
</g>
</svg>
